<svg width="35" height="35" viewBox="0 0 35 35" fill="none" xmlns="http://www.w3.org/2000/svg">
<path d="M29.1663 16.0376H32.0829C32.0829 8.55635 26.4348 2.91406 18.9434 2.91406V5.83073C24.8671 5.83073 29.1663 10.1226 29.1663 16.0376Z" fill="#BF0000"/>
<path d="M18.9587 11.6699C22.0256 11.6699 23.3337 12.978 23.3337 16.0449H26.2504C26.2504 11.3417 23.6619 8.7532 18.9587 8.7532V11.6699ZM23.9492 19.6076C23.6689 19.3529 23.3007 19.217 22.9222 19.2287C22.5437 19.2404 22.1846 19.3988 21.9206 19.6703L18.4308 23.2592C17.5908 23.0988 15.9021 22.5724 14.1637 20.8384C12.4254 19.0986 11.899 17.4055 11.7429 16.5713L15.329 13.0801C15.6008 12.8163 15.7594 12.4571 15.7711 12.0785C15.7828 11.6999 15.6467 11.3316 15.3917 11.0515L10.0031 5.12632C9.74797 4.84538 9.39336 4.67497 9.01459 4.65128C8.63583 4.62759 8.26274 4.75249 7.97458 4.99945L4.80999 7.71341C4.55787 7.96645 4.40738 8.30323 4.38708 8.65986C4.3652 9.02445 3.94812 17.6607 10.6448 24.3603C16.4869 30.2009 23.8048 30.6282 25.8202 30.6282C26.1148 30.6282 26.2956 30.6194 26.3437 30.6165C26.7003 30.5966 27.0369 30.4454 27.2887 30.1922L30.0012 27.0261C30.2484 26.7381 30.3735 26.3652 30.3501 25.9864C30.3267 25.6076 30.1566 25.2529 29.8758 24.9976L23.9492 19.6076Z" fill="#BF0000"/>
</svg>
