<svg width="50" height="50" viewBox="0 0 50 50" fill="none" xmlns="http://www.w3.org/2000/svg">
<circle cx="25" cy="25" r="25" fill="#BF0000"/>
<path fill-rule="evenodd" clip-rule="evenodd" d="M18.8159 10.09C20.4155 10.0164 20.9255 10 25 10C29.0745 10 29.5845 10.0177 31.1827 10.09C32.7809 10.1623 33.8718 10.4173 34.8264 10.7868C35.8259 11.1645 36.7327 11.755 37.4827 12.5186C38.2464 13.2673 38.8355 14.1727 39.2118 15.1736C39.5827 16.1282 39.8364 17.2191 39.91 18.8145C39.9836 20.4168 40 20.9268 40 25C40 29.0745 39.9823 29.5845 39.91 31.1841C39.8377 32.7795 39.5827 33.8705 39.2118 34.825C38.8354 35.826 38.2454 36.733 37.4827 37.4827C36.7327 38.2464 35.8259 38.8355 34.8264 39.2118C33.8718 39.5827 32.7809 39.8364 31.1855 39.91C29.5845 39.9836 29.0745 40 25 40C20.9255 40 20.4155 39.9823 18.8159 39.91C17.2205 39.8377 16.1295 39.5827 15.175 39.2118C14.174 38.8354 13.267 38.2453 12.5173 37.4827C11.7542 36.7336 11.1636 35.8271 10.7868 34.8264C10.4173 33.8718 10.1636 32.7809 10.09 31.1855C10.0164 29.5832 10 29.0732 10 25C10 20.9255 10.0177 20.4155 10.09 18.8173C10.1623 17.2191 10.4173 16.1282 10.7868 15.1736C11.1642 14.1728 11.7552 13.2663 12.5186 12.5173C13.2673 11.7543 14.1734 11.1638 15.1736 10.7868C16.1282 10.4173 17.2191 10.1636 18.8145 10.09H18.8159ZM31.0614 12.79C29.4795 12.7177 29.005 12.7027 25 12.7027C20.995 12.7027 20.5205 12.7177 18.9386 12.79C17.4755 12.8568 16.6818 13.1009 16.1527 13.3068C15.4532 13.5795 14.9527 13.9027 14.4277 14.4277C13.9301 14.9119 13.5471 15.5013 13.3068 16.1527C13.1009 16.6818 12.8568 17.4755 12.79 18.9386C12.7177 20.5205 12.7027 20.995 12.7027 25C12.7027 29.005 12.7177 29.4795 12.79 31.0614C12.8568 32.5245 13.1009 33.3182 13.3068 33.8473C13.5468 34.4977 13.93 35.0882 14.4277 35.5723C14.9118 36.07 15.5023 36.4532 16.1527 36.6932C16.6818 36.8991 17.4755 37.1432 18.9386 37.21C20.5205 37.2823 20.9936 37.2973 25 37.2973C29.0064 37.2973 29.4795 37.2823 31.0614 37.21C32.5245 37.1432 33.3182 36.8991 33.8473 36.6932C34.5468 36.4205 35.0473 36.0973 35.5723 35.5723C36.07 35.0882 36.4532 34.4977 36.6932 33.8473C36.8991 33.3182 37.1432 32.5245 37.21 31.0614C37.2823 29.4795 37.2973 29.005 37.2973 25C37.2973 20.995 37.2823 20.5205 37.21 18.9386C37.1432 17.4755 36.8991 16.6818 36.6932 16.1527C36.4205 15.4532 36.0973 14.9527 35.5723 14.4277C35.0881 13.9301 34.4987 13.5471 33.8473 13.3068C33.3182 13.1009 32.5245 12.8568 31.0614 12.79ZM23.0841 29.6241C24.1541 30.0695 25.3455 30.1296 26.4549 29.7942C27.5643 29.4587 28.5228 28.7485 29.1667 27.7849C29.8107 26.8212 30.1001 25.6639 29.9855 24.5106C29.871 23.3573 29.3596 22.2795 28.5386 21.4614C28.0153 20.9384 27.3826 20.5379 26.6859 20.2888C25.9893 20.0397 25.246 19.9482 24.5098 20.0208C23.7735 20.0935 23.0625 20.3284 22.4279 20.7088C21.7933 21.0892 21.251 21.6056 20.84 22.2207C20.4289 22.8359 20.1593 23.5345 20.0507 24.2663C19.9421 24.9981 19.997 25.7449 20.2116 26.453C20.4263 27.161 20.7952 27.8127 21.2919 28.361C21.7886 28.9093 22.4007 29.3407 23.0841 29.6241ZM19.5482 19.5482C20.2641 18.8322 21.1141 18.2643 22.0495 17.8769C22.9849 17.4894 23.9875 17.29 25 17.29C26.0125 17.29 27.0151 17.4894 27.9505 17.8769C28.8859 18.2643 29.7359 18.8322 30.4518 19.5482C31.1678 20.2641 31.7357 21.1141 32.1231 22.0495C32.5106 22.9849 32.71 23.9875 32.71 25C32.71 26.0125 32.5106 27.0151 32.1231 27.9505C31.7357 28.8859 31.1678 29.7359 30.4518 30.4518C29.0059 31.8977 27.0448 32.71 25 32.71C22.9552 32.71 20.9941 31.8977 19.5482 30.4518C18.1023 29.0059 17.29 27.0448 17.29 25C17.29 22.9552 18.1023 20.9941 19.5482 19.5482ZM34.42 18.4382C34.5974 18.2708 34.7394 18.0696 34.8377 17.8463C34.9359 17.6231 34.9884 17.3824 34.9919 17.1385C34.9955 16.8947 34.9501 16.6526 34.8584 16.4266C34.7667 16.2006 34.6306 15.9952 34.4581 15.8228C34.2857 15.6503 34.0804 15.5142 33.8544 15.4225C33.6283 15.3308 33.3862 15.2854 33.1424 15.289C32.8985 15.2925 32.6578 15.345 32.4346 15.4432C32.2113 15.5415 32.0101 15.6835 31.8427 15.8609C31.5172 16.2059 31.339 16.6643 31.346 17.1385C31.3529 17.6128 31.5444 18.0657 31.8798 18.4011C32.2152 18.7366 32.6681 18.928 33.1424 18.935C33.6167 18.9419 34.075 18.7637 34.42 18.4382Z" fill="white"/>
</svg>
