<svg width="21" height="20" viewBox="0 0 21 20" fill="none" xmlns="http://www.w3.org/2000/svg">
<path d="M20.3399 7.04257L14.3443 6.1301L11.6641 0.440169C11.5909 0.284382 11.4705 0.158269 11.3217 0.0816118C10.9486 -0.111267 10.4952 0.0494654 10.3087 0.440169L7.62845 6.1301L1.63284 7.04257C1.46755 7.0673 1.31642 7.1489 1.20071 7.27254C1.06082 7.4231 0.983738 7.62566 0.986395 7.8357C0.989051 8.04575 1.07123 8.24609 1.21488 8.39272L5.55278 12.8215L4.52793 19.0753C4.5039 19.2207 4.51927 19.3703 4.5723 19.5071C4.62534 19.6439 4.71392 19.7624 4.82799 19.8492C4.94206 19.9359 5.07707 19.9875 5.21769 19.998C5.35832 20.0085 5.49895 19.9775 5.62362 19.9086L10.9864 16.9561L16.3491 19.9086C16.4955 19.9902 16.6656 20.0174 16.8285 19.9877C17.2394 19.9135 17.5157 19.5055 17.4448 19.0753L16.42 12.8215L20.7579 8.39272C20.8759 8.27156 20.9539 8.1133 20.9775 7.9402C21.0412 7.50746 20.7532 7.10686 20.3399 7.04257Z" fill="black"/>
</svg>
