<svg width="145" height="30" viewBox="0 0 145 30" fill="none" xmlns="http://www.w3.org/2000/svg">
<path d="M21.5606 9.04257L15.565 8.1301L12.8848 2.44017C12.8116 2.28438 12.6912 2.15827 12.5424 2.08161C12.1693 1.88873 11.7159 2.04947 11.5294 2.44017L8.84916 8.1301L2.85355 9.04257C2.68825 9.0673 2.53712 9.1489 2.42141 9.27254C2.28152 9.4231 2.20444 9.62566 2.2071 9.8357C2.20975 10.0457 2.29193 10.2461 2.43558 10.3927L6.77348 14.8215L5.74863 21.0753C5.7246 21.2207 5.73997 21.3703 5.79301 21.5071C5.84604 21.6439 5.93462 21.7624 6.04869 21.8492C6.16276 21.9359 6.29777 21.9875 6.4384 21.998C6.57903 22.0085 6.71965 21.9775 6.84432 21.9086L12.2071 18.9561L17.5698 21.9086C17.7162 21.9902 17.8863 22.0174 18.0492 21.9877C18.4601 21.9135 18.7364 21.5055 18.6655 21.0753L17.6407 14.8215L21.9786 10.3927C22.0966 10.2716 22.1746 10.1133 22.1982 9.9402C22.2619 9.50746 21.9739 9.10686 21.5606 9.04257Z" fill="black"/>
<path d="M51.3399 9.04257L45.3443 8.1301L42.6641 2.44017C42.5909 2.28438 42.4705 2.15827 42.3217 2.08161C41.9486 1.88873 41.4952 2.04947 41.3087 2.44017L38.6285 8.1301L32.6328 9.04257C32.4675 9.0673 32.3164 9.1489 32.2007 9.27254C32.0608 9.4231 31.9837 9.62566 31.9864 9.8357C31.9891 10.0457 32.0712 10.2461 32.2149 10.3927L36.5528 14.8215L35.5279 21.0753C35.5039 21.2207 35.5193 21.3703 35.5723 21.5071C35.6253 21.6439 35.7139 21.7624 35.828 21.8492C35.9421 21.9359 36.0771 21.9875 36.2177 21.998C36.3583 22.0085 36.4989 21.9775 36.6236 21.9086L41.9864 18.9561L47.3491 21.9086C47.4955 21.9902 47.6656 22.0174 47.8285 21.9877C48.2394 21.9135 48.5157 21.5055 48.4448 21.0753L47.42 14.8215L51.7579 10.3927C51.8759 10.2716 51.9539 10.1133 51.9775 9.9402C52.0412 9.50746 51.7532 9.10686 51.3399 9.04257Z" fill="black"/>
<path d="M81.1192 9.04257L75.1236 8.1301L72.4434 2.44017C72.3702 2.28438 72.2498 2.15827 72.101 2.08161C71.7279 1.88873 71.2745 2.04947 71.0879 2.44017L68.4078 8.1301L62.4121 9.04257C62.2468 9.0673 62.0957 9.1489 61.98 9.27254C61.8401 9.4231 61.763 9.62566 61.7657 9.8357C61.7683 10.0457 61.8505 10.2461 61.9942 10.3927L66.3321 14.8215L65.3072 21.0753C65.2832 21.2207 65.2986 21.3703 65.3516 21.5071C65.4046 21.6439 65.4932 21.7624 65.6073 21.8492C65.7214 21.9359 65.8564 21.9875 65.997 21.998C66.1376 22.0085 66.2782 21.9775 66.4029 21.9086L71.7657 18.9561L77.1284 21.9086C77.2748 21.9902 77.4449 22.0174 77.6078 21.9877C78.0187 21.9135 78.295 21.5055 78.2241 21.0753L77.1993 14.8215L81.5372 10.3927C81.6552 10.2716 81.7332 10.1133 81.7568 9.9402C81.8205 9.50746 81.5324 9.10686 81.1192 9.04257Z" fill="black"/>
<path d="M110.9 9.04257L104.905 8.1301L102.225 2.44017C102.151 2.28438 102.031 2.15827 101.882 2.08161C101.509 1.88873 101.056 2.04947 100.869 2.44017L98.189 8.1301L92.1934 9.04257C92.0281 9.0673 91.877 9.1489 91.7613 9.27254C91.6214 9.4231 91.5443 9.62566 91.5469 9.8357C91.5496 10.0457 91.6318 10.2461 91.7754 10.3927L96.1133 14.8215L95.0885 21.0753C95.0644 21.2207 95.0798 21.3703 95.1329 21.5071C95.1859 21.6439 95.2745 21.7624 95.3885 21.8492C95.5026 21.9359 95.6376 21.9875 95.7782 21.998C95.9189 22.0085 96.0595 21.9775 96.1842 21.9086L101.547 18.9561L106.91 21.9086C107.056 21.9902 107.226 22.0174 107.389 21.9877C107.8 21.9135 108.076 21.5055 108.005 21.0753L106.981 14.8215L111.318 10.3927C111.436 10.2716 111.514 10.1133 111.538 9.9402C111.602 9.50746 111.314 9.10686 110.9 9.04257Z" fill="black"/>
<path d="M140.68 9.04257L134.684 8.1301L132.004 2.44017C131.931 2.28438 131.81 2.15827 131.662 2.08161C131.288 1.88873 130.835 2.04947 130.648 2.44017L127.968 8.1301L121.973 9.04257C121.807 9.0673 121.656 9.1489 121.541 9.27254C121.401 9.4231 121.324 9.62566 121.326 9.8357C121.329 10.0457 121.411 10.2461 121.555 10.3927L125.893 14.8215L124.868 21.0753C124.844 21.2207 124.859 21.3703 124.912 21.5071C124.965 21.6439 125.054 21.7624 125.168 21.8492C125.282 21.9359 125.417 21.9875 125.558 21.998C125.698 22.0085 125.839 21.9775 125.963 21.9086L131.326 18.9561L136.689 21.9086C136.835 21.9902 137.005 22.0174 137.168 21.9877C137.579 21.9135 137.856 21.5055 137.785 21.0753L136.76 14.8215L141.098 10.3927C141.216 10.2716 141.294 10.1133 141.317 9.9402C141.381 9.50746 141.093 9.10686 140.68 9.04257Z" fill="black"/>
</svg>
