<svg width="30" height="21" viewBox="0 0 30 21" fill="none" xmlns="http://www.w3.org/2000/svg">
<path d="M3.29 0H26.4775C28.665 0 29.7675 1.0325 29.7675 3.1325V17.8675C29.7675 19.95 28.665 21 26.4775 21H3.29C1.1025 21 0 19.95 0 17.8675V3.1325C0 1.0325 1.1025 0 3.29 0ZM14.875 15.05L26.67 5.3725C27.09 5.0225 27.4225 4.2175 26.8975 3.5C26.39 2.7825 25.4625 2.765 24.85 3.2025L14.875 9.9575L4.9175 3.2025C4.305 2.765 3.3775 2.7825 2.87 3.5C2.345 4.2175 2.6775 5.0225 3.0975 5.3725L14.875 15.05Z" fill="#BF0000"/>
</svg>
