<svg width="50" height="50" viewBox="0 0 50 50" fill="none" xmlns="http://www.w3.org/2000/svg">
<circle cx="25" cy="25" r="25" fill="#BF0000"/>
<g clip-path="url(#clip0_84_173)">
<path fill-rule="evenodd" clip-rule="evenodd" d="M40 25C40 33.2838 33.2838 40 25 40C16.7163 40 10 33.2838 10 25C10 16.7163 16.7163 10 25 10C33.2838 10 40 16.7163 40 25ZM25.5375 21.0738C24.0788 21.68 21.1625 22.9362 16.79 24.8413C16.08 25.1237 15.7075 25.4 15.6737 25.67C15.6163 26.1275 16.1887 26.3075 16.9662 26.5513C17.0725 26.585 17.1825 26.6187 17.295 26.6562C18.0612 26.905 19.0913 27.1962 19.6263 27.2075C20.1125 27.2175 20.655 27.0175 21.2537 26.6075C25.3387 23.8488 27.4475 22.455 27.58 22.425C27.6737 22.4037 27.8037 22.3762 27.8913 22.455C27.9788 22.5325 27.97 22.68 27.9613 22.72C27.9038 22.9612 25.6613 25.0475 24.4987 26.1275C24.1362 26.4638 23.88 26.7025 23.8275 26.7575C23.71 26.8787 23.59 26.995 23.475 27.1063C22.7625 27.7913 22.23 28.3062 23.505 29.1462C24.1175 29.55 24.6075 29.8838 25.0962 30.2163C25.63 30.58 26.1625 30.9425 26.8525 31.395C27.0275 31.51 27.195 31.6287 27.3587 31.745C27.98 32.1887 28.5387 32.5862 29.2288 32.5237C29.6287 32.4862 30.0437 32.11 30.2537 30.9862C30.75 28.3287 31.7275 22.5738 31.9538 20.2013C31.9675 20.0043 31.9591 19.8064 31.9287 19.6112C31.9106 19.4537 31.8338 19.3087 31.7138 19.205C31.535 19.0588 31.2575 19.0275 31.1325 19.03C30.5688 19.04 29.7038 19.3413 25.5375 21.0738Z" fill="white"/>
</g>
<defs>
<clipPath id="clip0_84_173">
<rect width="30" height="30" fill="white" transform="translate(10 10)"/>
</clipPath>
</defs>
</svg>
