<svg width="50" height="50" viewBox="0 0 50 50" fill="none" xmlns="http://www.w3.org/2000/svg">
<circle cx="25" cy="25" r="25" fill="#BF0000"/>
<path d="M40 16.7282C38.8968 17.1893 37.7116 17.5008 36.4657 17.6416C37.7513 16.9161 38.713 15.7743 39.1716 14.4293C37.9638 15.1059 36.6419 15.5821 35.2634 15.8373C34.3364 14.9039 33.1085 14.2851 31.7704 14.0772C30.4324 13.8693 29.059 14.0839 27.8634 14.6875C26.6679 15.2912 25.7171 16.2502 25.1588 17.4157C24.6004 18.5811 24.4656 19.8879 24.7754 21.133C22.328 21.0171 19.9339 20.4172 17.7483 19.3722C15.5627 18.3272 13.6345 16.8605 12.0889 15.0673C11.5604 15.927 11.2565 16.9238 11.2565 17.9855C11.2559 18.9412 11.5055 19.8822 11.983 20.7252C12.4606 21.5681 13.1514 22.2868 13.9941 22.8176C13.0167 22.7883 12.061 22.5392 11.2063 22.0912V22.1659C11.2062 23.5063 11.6978 24.8055 12.5978 25.843C13.4978 26.8804 14.7506 27.5923 16.1438 27.8578C15.2371 28.0892 14.2865 28.1233 13.3639 27.9575C13.7569 29.1109 14.5226 30.1194 15.5536 30.842C16.5847 31.5646 17.8295 31.965 19.1139 31.9872C16.9336 33.6013 14.241 34.4769 11.4692 34.473C10.9782 34.4732 10.4876 34.4461 10 34.392C12.8135 36.0981 16.0887 37.0035 19.4336 37C30.7566 37 36.9466 28.1556 36.9466 20.485C36.9466 20.2358 36.94 19.9841 36.9281 19.7349C38.1322 18.9137 39.1715 17.8969 39.9974 16.732L40 16.7282Z" fill="white"/>
</svg>
