<svg width="50" height="50" viewBox="0 0 50 50" fill="none" xmlns="http://www.w3.org/2000/svg">
<circle cx="25" cy="25" r="25" fill="#BF0000"/>
<path d="M39.3718 18.138C39.202 17.5324 38.8711 16.9841 38.4144 16.5515C37.9449 16.1055 37.3693 15.7865 36.7422 15.6246C34.395 15.0062 24.9913 15.0062 24.9913 15.0062C21.0709 14.9616 17.1516 15.1577 13.2553 15.5933C12.6282 15.7672 12.0537 16.0934 11.5831 16.5427C11.1206 16.9875 10.7857 17.5359 10.6107 18.1368C10.1904 20.4 9.98614 22.6981 10.0008 25C9.98577 27.2998 10.1895 29.5971 10.6107 31.8632C10.7819 32.4616 11.1156 33.0075 11.5793 33.4485C12.043 33.8895 12.6204 34.208 13.2553 34.3767C15.6338 34.9938 24.9913 34.9938 24.9913 34.9938C28.9166 35.0384 32.8409 34.8424 36.7422 34.4067C37.3693 34.2447 37.9449 33.9257 38.4144 33.4797C38.871 33.0472 39.2014 32.4988 39.3706 31.8932C39.8019 29.6308 40.0116 27.3318 39.9967 25.0287C40.0292 22.7159 39.8197 20.406 39.3718 18.1368V18.138ZM22.0017 29.2773V20.7239L29.8256 25.0012L22.0017 29.2773Z" fill="white"/>
</svg>
